<svg width="123" height="120" viewBox="0 0 123 120" fill="none" xmlns="http://www.w3.org/2000/svg">
<g id="psychology">
<mask id="mask0_532_198" style="mask-type:alpha" maskUnits="userSpaceOnUse" x="0" y="0" width="123" height="120">
<rect id="Bounding box" width="122.749" height="120" fill="#D9D9D9"/>
</mask>
<g mask="url(#mask0_532_198)">
<path id="psychology_2" d="M30.6874 110V88.5002C25.8285 84.1669 22.0565 79.1044 19.3714 73.3127C16.6863 67.5211 15.3437 61.4169 15.3437 55.0002C15.3437 42.5002 19.8189 31.8752 28.7694 23.1252C37.7199 14.3752 48.5883 10.0002 61.3747 10.0002C72.03 10.0002 81.4706 13.0627 89.6965 19.1877C97.9224 25.3127 103.271 33.2919 105.743 43.1252L112.776 70.3752C113.117 71.5419 112.904 72.6044 112.137 73.5627C111.369 74.5211 110.347 75.0002 109.068 75.0002H97.1766V92.5002C97.1766 94.5627 96.4254 96.3284 94.923 97.7971C93.4206 99.2659 91.6145 100 89.5047 100H76.7183V110H69.0465V92.5002H89.5047V67.5002H104.081L98.3273 45.0002C96.2815 36.9169 91.8063 30.3127 84.9016 25.1877C77.997 20.0627 70.1547 17.5002 61.3747 17.5002C50.7194 17.5002 41.6623 21.1044 34.2036 28.3127C26.7449 35.5211 23.0155 44.3144 23.0155 54.6927C23.0155 60.0608 24.1375 65.1605 26.3814 69.9917C28.6254 74.8231 31.8082 79.1176 35.9298 82.8752L38.3592 85.1252V110H30.6874Z" fill="white"/>
</g>
</g>
</svg>
