<svg width="34" height="40" viewBox="0 0 34 40" fill="none" xmlns="http://www.w3.org/2000/svg">
<g id="_&#231;&#183;&#168;&#233;&#155;&#134;&#227;&#131;&#162;&#227;&#131;&#188;&#227;&#131;&#137;" clip-path="url(#clip0_532_123)">
<path id="Vector" d="M3.35471 31.5023H30.6252V11.0069L23.1222 3.39832H3.35471V31.5023Z" fill="white"/>
<g id="Group">
<g id="Group_2">
<path id="Vector_2" d="M26.3407 36.9306H26.6493V39.4519H26.3407V39.9026H26.6493H27.2946H27.6032V39.4519H27.2946V36.9306H27.6032V36.484H26.3407V36.9306Z" fill="white"/>
<path id="Vector_3" d="M2.4489 36.886C2.1002 36.6099 1.69138 36.484 1.14228 36.484H0V39.9026H1.14629C1.63527 39.9026 2.07615 39.7808 2.42084 39.5372C2.82565 39.2327 3.01403 38.8023 3.01403 38.1811C3.01403 37.6533 2.8016 37.1661 2.4489 36.886ZM1.96794 39.188C1.78758 39.3464 1.45491 39.4479 1.13828 39.4479H0.629259V36.9428H1.13026C1.44689 36.9428 1.73146 37.024 1.91182 37.1661C2.20441 37.3935 2.35671 37.7467 2.35671 38.1771C2.35671 38.644 2.23647 38.9607 1.96794 39.188Z" fill="white"/>
<path id="Vector_4" d="M6.12826 37.4665C6.12826 36.8575 5.61924 36.484 4.78958 36.484H3.42285V39.9026H4.04409V38.441H4.68137L5.55111 39.9026H6.30061L5.29059 38.3882C5.84369 38.242 6.12826 37.9335 6.12826 37.4665ZM4.04409 38.0025V36.9347H4.81764C5.20241 36.9347 5.46694 37.1499 5.46694 37.4665C5.46694 37.7832 5.21844 38.0025 4.85371 38.0025H4.04409Z" fill="white"/>
<path id="Vector_5" d="M7.7996 36.484L6.56113 39.9026H7.27054L7.61523 38.8957H8.81363L9.15832 39.9026H9.86774L8.63327 36.484H7.7996ZM7.76754 38.4369L8.21644 36.9712L8.66533 38.4369H7.76353H7.76754Z" fill="white"/>
<path id="Vector_6" d="M11.5551 38.2055V38.6725H12.3527C12.2485 39.1759 11.9118 39.5007 11.483 39.5007C10.9339 39.5007 10.5651 38.977 10.5651 38.2015C10.5651 37.426 10.998 36.8779 11.5912 36.8779C11.9719 36.8779 12.2445 37.0403 12.3727 37.3448V37.357L12.9539 37.1377L12.9459 37.1215C12.7255 36.6505 12.2285 36.3826 11.5832 36.3826C10.5651 36.3826 9.87976 37.1134 9.87976 38.2015C9.87976 39.2896 10.477 39.992 11.4429 39.992C11.9399 39.992 12.2725 39.8093 12.497 39.4195L12.5331 39.8986V39.9148H13.0822V38.2055H11.5511H11.5551Z" fill="white"/>
<path id="Vector_7" d="M15.1022 36.3826C14.1283 36.3826 13.4709 37.1093 13.4709 38.1934C13.4709 39.2774 14.1202 39.996 15.0902 39.996C16.0601 39.996 16.7174 39.2896 16.7174 38.1934C16.7174 37.0971 16.0681 36.3826 15.1022 36.3826ZM15.0902 36.8698C15.6593 36.8698 16.0241 37.3895 16.0241 38.1934C16.0241 38.9973 15.6593 39.5088 15.0942 39.5088C14.5291 39.5088 14.1643 38.9891 14.1643 38.1893C14.1643 37.3895 14.5371 36.8698 15.0902 36.8698Z" fill="white"/>
<path id="Vector_8" d="M19.3507 39.0419L17.9719 36.484H17.1343V39.9026H17.7475V37.1093L19.2425 39.9026H19.9639V36.484H19.3507V39.0419Z" fill="white"/>
<path id="Vector_9" d="M20.6132 39.9026H21.2625V38.3476H22.8497V37.8929H21.2625V36.9469H23.1062V36.484H20.6132V39.9026Z" fill="white"/>
<path id="Vector_10" d="M24.2485 36.484H23.5792V39.9026H25.8637V39.4032H24.2485V36.484Z" fill="white"/>
<path id="Vector_11" d="M28.7695 38.3435H30.3968V37.8847H28.7695V36.9469H30.6533V36.484H28.1243V39.9026H30.7094V39.4398H28.7695V38.3435Z" fill="white"/>
<path id="Vector_12" d="M33.519 38.242C33.3667 38.1527 33.0822 38.039 32.7134 37.9172L32.6653 37.901C32.3687 37.7954 32.2365 37.7426 32.1162 37.6695C31.98 37.5964 31.8998 37.4665 31.8998 37.3122C31.8998 37.0321 32.1483 36.8656 32.5691 36.8656C32.9218 36.8656 33.1503 36.9996 33.2745 37.2757L33.2826 37.296L33.8758 37.028L33.8637 37.0037C33.6112 36.5733 33.2144 36.3784 32.5691 36.3784C31.7475 36.3784 31.2144 36.7479 31.2144 37.3244C31.2144 37.6005 31.3467 37.8401 31.5992 38.0106C31.7635 38.1243 32 38.2339 32.3247 38.3476L32.3647 38.3597C32.7735 38.51 32.9579 38.583 33.0461 38.6277C33.2064 38.717 33.2906 38.8429 33.2906 38.9972C33.2906 39.3139 33.014 39.4966 32.5291 39.4966C32.1002 39.4966 31.7836 39.326 31.6072 39.0053L31.5952 38.985L31.0301 39.2733L31.0421 39.2936C31.3186 39.7564 31.8156 39.9919 32.517 39.9919C33.4589 39.9919 33.996 39.6265 33.996 38.9931C33.996 38.6805 33.8236 38.4125 33.511 38.2379L33.519 38.242Z" fill="white"/>
</g>
<g id="Group_3">
<g id="Group_4">
<g id="Group_5">
<path id="Vector_13" d="M17.1623 13.041L8.92986 4.70154H5.95992V7.69788L14.1964 16.0454L17.1623 13.041Z" fill="#00AFAD"/>
<path id="Vector_14" d="M18.505 14.4052L5.87575 27.2066V30.1989H8.8497L13.6553 25.3309L18.4609 30.1989H21.4108V27.1944L16.6132 22.3304L18.505 20.4141L26.3647 28.38H29.3186V25.3674L18.505 14.4052Z" fill="#E94709"/>
<path id="Vector_15" d="M23.4332 9.36718L19.8439 13.0005L23.4307 16.6363L27.0199 13.003L23.4332 9.36718Z" fill="#E94709"/>
<path id="Vector_16" d="M19.167 5.04637L15.5778 8.67969L18.5129 11.655L22.1021 8.02168L19.167 5.04637Z" fill="#E94709"/>
</g>
<path id="Vector_17" d="M33.98 34.9005H0V0H24.509L33.9759 9.59805V34.9005H33.98ZM3.35471 31.5022H30.6252V11.0069L23.1222 3.39829H3.35471V31.5022Z" fill="#E94709"/>
<g id="Group_6">
<path id="Vector_18" d="M8.52104 32.1683V33.0047H9.4509V32.1683H9.83166V34.2227H9.4509V33.2889H8.52104V34.2227H8.14027V32.1683H8.52104Z" fill="white"/>
<path id="Vector_19" d="M11.1303 32.4404V32.1683H10.9459H10.5571H10.3687V32.4404H10.5571V33.9548H10.3687V34.2227H10.5571H10.9459H11.1303V33.9548H10.9459V32.4404H11.1303Z" fill="white"/>
<path id="Vector_20" d="M12.489 32.1682C12.986 32.1682 13.2946 32.3915 13.2946 32.757C13.2946 33.0371 13.1222 33.2239 12.7896 33.3091L13.3948 34.2186H12.9419L12.4208 33.3376H12.0361V34.2186H11.6633V32.1642H12.485L12.489 32.1682ZM12.0401 33.0818H12.525C12.7415 33.0818 12.8938 32.9478 12.8938 32.761C12.8938 32.5743 12.7335 32.4403 12.501 32.4403H12.0361V33.0818H12.0401Z" fill="white"/>
<path id="Vector_21" d="M14.5651 32.1033C13.9759 32.1033 13.5791 32.5418 13.5791 33.1995C13.5791 33.8572 13.9719 34.2917 14.5571 34.2917C15.1423 34.2917 15.5391 33.8653 15.5391 33.1995C15.5391 32.5336 15.1463 32.1033 14.5611 32.1033H14.5651ZM15.1142 33.1995C15.1142 33.6745 14.8978 33.9831 14.5611 33.9831C14.2244 33.9831 14.008 33.6745 14.008 33.1954C14.008 32.7163 14.2284 32.4078 14.5571 32.4078C14.8858 32.4078 15.1142 32.7163 15.1142 33.1954V33.1995Z" fill="white"/>
<path id="Vector_22" d="M17.2745 33.2238C17.1824 33.171 17.01 33.102 16.7896 33.0289L16.7615 33.0167C16.5892 32.9558 16.505 32.9233 16.4329 32.8787C16.3527 32.834 16.3046 32.7569 16.3046 32.6635C16.3046 32.497 16.4529 32.3955 16.7054 32.3955C16.9178 32.3955 17.0541 32.4767 17.1262 32.6391L17.1343 32.6554L17.495 32.493L17.487 32.4767C17.3347 32.2169 17.0942 32.0991 16.7094 32.0991C16.2124 32.0991 15.8918 32.3224 15.8918 32.6675C15.8918 32.834 15.9719 32.9761 16.1242 33.0817C16.2244 33.1507 16.3647 33.2156 16.5611 33.2847L16.5852 33.2928C16.8297 33.3821 16.9419 33.4268 16.994 33.4552C17.0902 33.508 17.1423 33.5851 17.1423 33.6744C17.1423 33.8653 16.978 33.9749 16.6854 33.9749C16.4289 33.9749 16.2365 33.8734 16.1323 33.6826L16.1242 33.6704L15.7956 33.8368L15.7796 33.845L15.7876 33.8612C15.9559 34.1413 16.2525 34.2794 16.6774 34.2794C17.2425 34.2794 17.5671 34.0601 17.5671 33.6785C17.5671 33.4917 17.4629 33.3293 17.2745 33.2238Z" fill="white"/>
<path id="Vector_23" d="M18.3086 32.1683V33.0047H19.2385V32.1683H19.6192V34.2227H19.2385V33.2889H18.3086V34.2227H17.9238V32.1683H18.3086Z" fill="white"/>
<path id="Vector_24" d="M20.9098 32.4404V32.1683H20.7254H20.3367H20.1523V32.4404H20.3367V33.9548H20.1523V34.2227H20.3367H20.7254H20.9098V33.9548H20.7254V32.4404H20.9098Z" fill="white"/>
<path id="Vector_25" d="M22.0281 32.1683L22.493 33.833L22.9619 32.1683H23.5471V34.2227H23.1944V32.5337L22.6934 34.2227H22.2966L21.7916 32.5337V34.2227H21.4429V32.1683H22.0281Z" fill="white"/>
<path id="Vector_26" d="M25.0982 32.1683L25.8397 34.2227H25.4148L25.2064 33.6178H24.485L24.2766 34.2227H23.8517L24.5972 32.1683H25.0982ZM24.5772 33.3417H25.1182L24.8457 32.4607L24.5731 33.3417H24.5772Z" fill="white"/>
</g>
</g>
<g id="Group_7">
<path id="Vector_27" d="M8.78958 21.685C9.62726 21.5632 10.4369 21.1938 11.0982 20.5644L8.18838 17.6168L7.55511 18.2624C8.61323 19.387 9.0982 20.7593 8.78958 21.685Z" fill="#E94709"/>
<path id="Vector_28" d="M7.35472 18.0594L7.98799 17.4138L5.07817 14.4662C4.47296 15.1199 4.09219 15.9319 3.97195 16.8089C4.88578 16.4922 6.2445 16.9875 7.35071 18.0594H7.35472Z" fill="#E94709"/>
<path id="Vector_29" d="M11.8958 18.1325C11.0261 18.1771 9.93187 17.6818 9.00602 16.7886L8.38478 17.4179L11.2946 20.3655C11.9118 19.6997 12.2766 18.8836 12.3968 18.035C12.2405 18.0919 12.0722 18.1243 11.8958 18.1325Z" fill="#E94709"/>
<path id="Vector_30" d="M8.80963 16.5857C7.7435 15.4529 7.25853 14.0725 7.58318 13.1427C6.7455 13.2645 5.93989 13.6421 5.28258 14.2673L8.1924 17.215L8.81364 16.5857H8.80963Z" fill="#E94709"/>
<path id="Vector_31" d="M7.35472 18.4572L5.27856 20.5603C6.16834 21.4089 7.33468 21.7905 8.47295 21.7134C8.84169 20.9054 8.37676 19.5412 7.35472 18.4531V18.4572Z" fill="#E94709"/>
<path id="Vector_32" d="M7.15832 18.2583C6.08417 17.2229 4.74149 16.7479 3.94389 17.1255C3.93588 17.2229 3.93187 17.3163 3.93187 17.4138C3.93187 18.5181 4.34469 19.5575 5.08618 20.3614L7.16233 18.2583H7.15832Z" fill="#E94709"/>
<path id="Vector_33" d="M9.00601 16.3866L11.0982 14.2672C10.2245 13.4389 9.09018 13.0492 7.97595 13.106C7.9479 13.106 7.92385 13.1101 7.89579 13.1141C7.51103 13.9221 7.97595 15.2903 9.00601 16.3866Z" fill="#E94709"/>
<path id="Vector_34" d="M9.20241 16.5856C10.2846 17.629 11.6353 18.1 12.4289 17.7143C12.509 16.5571 12.1283 15.3716 11.2906 14.4662L9.20241 16.5856Z" fill="#E94709"/>
</g>
</g>
</g>
</g>
<defs>
<clipPath id="clip0_532_123">
<rect width="34" height="40" fill="white"/>
</clipPath>
</defs>
</svg>
