<svg width="77" height="76" viewBox="0 0 77 76" fill="none" xmlns="http://www.w3.org/2000/svg">
<path id="volunteer_activism" d="M54.9862 40.7805L39.7733 25.7659C37.8794 23.9122 36.2756 21.8577 34.962 19.6024C33.6485 17.3472 32.9917 14.8911 32.9917 12.2341C32.9917 8.83577 34.1678 5.94715 36.52 3.56829C38.8722 1.18943 41.7284 0 45.0887 0C47.0437 0 48.8766 0.417073 50.5873 1.25122C52.298 2.08537 53.7643 3.21301 54.9862 4.63415C56.2081 3.21301 57.6744 2.08537 59.3851 1.25122C61.0957 0.417073 62.9286 0 64.8837 0C68.244 0 71.1002 1.18943 73.4524 3.56829C75.8046 5.94715 76.9806 8.83577 76.9806 12.2341C76.9806 14.8911 76.3391 17.3472 75.0561 19.6024C73.7731 21.8577 72.1846 23.9122 70.2907 25.7659L54.9862 40.7805ZM54.9862 30.4L64.9753 20.4829C66.1361 19.3089 67.2053 18.0577 68.1829 16.7293C69.1604 15.4008 69.6491 13.9024 69.6491 12.2341C69.6491 10.8748 69.1909 9.73171 68.2745 8.80488C67.3581 7.87805 66.2278 7.41463 64.8837 7.41463C64.0284 7.41463 63.2188 7.58455 62.4551 7.92439C61.6914 8.26423 61.0347 8.77398 60.4848 9.45366L54.9862 16.1268L49.4876 9.45366C48.9377 8.77398 48.2809 8.26423 47.5172 7.92439C46.7535 7.58455 45.944 7.41463 45.0887 7.41463C43.7446 7.41463 42.6143 7.87805 41.6978 8.80488C40.7814 9.73171 40.3232 10.8748 40.3232 12.2341C40.3232 13.9024 40.812 15.4008 41.7895 16.7293C42.767 18.0577 43.8362 19.3089 44.997 20.4829L54.9862 30.4ZM21.9945 61.1707L47.4714 68.2146L69.2826 61.3561C68.9771 60.8 68.5342 60.3211 67.9537 59.9195C67.3733 59.5179 66.7166 59.3171 65.9834 59.3171H47.4714C45.8218 59.3171 44.5083 59.2553 43.5307 59.1317C42.5532 59.0081 41.5451 58.761 40.5065 58.3902L31.9836 55.5171L33.9998 48.2878L41.4229 50.7902C42.4615 51.0992 43.6835 51.3463 45.0887 51.5317C46.4939 51.7171 48.5711 51.8407 51.3204 51.9024C51.3204 51.2228 51.1219 50.574 50.7247 49.9561C50.3276 49.3382 49.8541 48.9366 49.3043 48.7512L27.8597 40.7805H21.9945V61.1707ZM0 74.1463V33.3659H27.8597C28.2873 33.3659 28.715 33.4122 29.1427 33.5049C29.5703 33.5976 29.9675 33.7057 30.334 33.8293L51.8703 41.8927C53.8865 42.6341 55.5208 43.9317 56.7732 45.7854C58.0257 47.639 58.6519 49.6781 58.6519 51.9024H65.9834C69.0382 51.9024 71.6348 52.922 73.7731 54.961C75.9115 57 76.9806 59.6878 76.9806 63.0244V66.7317L47.6547 76L21.9945 68.7707V74.1463H0ZM7.33149 66.7317H14.663V40.7805H7.33149V66.7317Z" fill="white"/>
</svg>
