<svg width="25" height="28" viewBox="0 0 25 28" fill="none" xmlns="http://www.w3.org/2000/svg">
<g id="fa6-brands:instagram" clip-path="url(#clip0_570_515)">
<path id="Vector" d="M12.2513 7.70893C8.77436 7.70893 5.96983 10.5135 5.96983 13.9904C5.96983 17.4674 8.77436 20.2719 12.2513 20.2719C15.7283 20.2719 18.5328 17.4674 18.5328 13.9904C18.5328 10.5135 15.7283 7.70893 12.2513 7.70893ZM12.2513 18.0742C10.0044 18.0742 8.16753 16.2428 8.16753 13.9904C8.16753 11.738 9.99895 9.90663 12.2513 9.90663C14.5037 9.90663 16.3351 11.738 16.3351 13.9904C16.3351 16.2428 14.4982 18.0742 12.2513 18.0742ZM20.2549 7.45198C20.2549 8.26655 19.5989 8.91712 18.7898 8.91712C17.9752 8.91712 17.3246 8.26109 17.3246 7.45198C17.3246 6.64288 17.9806 5.98685 18.7898 5.98685C19.5989 5.98685 20.2549 6.64288 20.2549 7.45198ZM24.4152 8.93898C24.3223 6.97636 23.874 5.23788 22.4362 3.80555C21.0039 2.37321 19.2654 1.92493 17.3027 1.82652C15.28 1.71172 9.21718 1.71172 7.19442 1.82652C5.23726 1.91946 3.49878 2.36775 2.06098 3.80008C0.623179 5.23241 0.180358 6.97089 0.0819536 8.93352C-0.0328517 10.9563 -0.0328517 17.0191 0.0819536 19.0419C0.174891 21.0045 0.623179 22.743 2.06098 24.1753C3.49878 25.6076 5.23179 26.0559 7.19442 26.1543C9.21718 26.2691 15.28 26.2691 17.3027 26.1543C19.2654 26.0614 21.0039 25.6131 22.4362 24.1753C23.8685 22.743 24.3168 21.0045 24.4152 19.0419C24.53 17.0191 24.53 10.9617 24.4152 8.93898ZM21.802 21.2122C21.3756 22.2837 20.5501 23.1092 19.4731 23.5411C17.8604 24.1808 14.0335 24.0331 12.2513 24.0331C10.4691 24.0331 6.63679 24.1753 5.02952 23.5411C3.958 23.1147 3.13249 22.2892 2.70061 21.2122C2.06098 19.5995 2.20859 15.7726 2.20859 13.9904C2.20859 12.2082 2.06645 8.37589 2.70061 6.76862C3.12703 5.6971 3.95253 4.8716 5.02952 4.43971C6.64226 3.80008 10.4691 3.94769 12.2513 3.94769C14.0335 3.94769 17.8658 3.80555 19.4731 4.43971C20.5446 4.86613 21.3701 5.69163 21.802 6.76862C22.4417 8.38136 22.294 12.2082 22.294 13.9904C22.294 15.7726 22.4417 19.6049 21.802 21.2122Z" fill="white"/>
</g>
<defs>
<clipPath id="clip0_570_515">
<rect width="24.5" height="28" fill="white"/>
</clipPath>
</defs>
</svg>
