<svg width="26" height="28" viewBox="0 0 26 28" fill="none" xmlns="http://www.w3.org/2000/svg">
<g id="fa6-brands:instagram" clip-path="url(#clip0_572_108)">
<path id="Vector" d="M13.0054 7.71093C9.5273 7.71093 6.72183 10.5164 6.72183 13.9945C6.72183 17.4726 9.5273 20.2781 13.0054 20.2781C16.4835 20.2781 19.289 17.4726 19.289 13.9945C19.289 10.5164 16.4835 7.71093 13.0054 7.71093ZM13.0054 18.0797C10.7578 18.0797 8.92026 16.2476 8.92026 13.9945C8.92026 11.7414 10.7523 9.90936 13.0054 9.90936C15.2585 9.90936 17.0906 11.7414 17.0906 13.9945C17.0906 16.2476 15.2531 18.0797 13.0054 18.0797ZM21.0117 7.45389C21.0117 8.26874 20.3554 8.91952 19.546 8.91952C18.7312 8.91952 18.0804 8.26327 18.0804 7.45389C18.0804 6.64452 18.7367 5.98827 19.546 5.98827C20.3554 5.98827 21.0117 6.64452 21.0117 7.45389ZM25.1734 8.94139C25.0804 6.97811 24.632 5.23905 23.1937 3.80624C21.7609 2.37343 20.0218 1.92499 18.0585 1.82655C16.0351 1.71171 9.97026 1.71171 7.94683 1.82655C5.98901 1.91952 4.24995 2.36796 2.81167 3.80077C1.37339 5.23358 0.93042 6.97264 0.831982 8.93593C0.717139 10.9594 0.717139 17.0242 0.831982 19.0476C0.924951 21.0109 1.37339 22.75 2.81167 24.1828C4.24995 25.6156 5.98354 26.064 7.94683 26.1625C9.97026 26.2773 16.0351 26.2773 18.0585 26.1625C20.0218 26.0695 21.7609 25.6211 23.1937 24.1828C24.6265 22.75 25.075 21.0109 25.1734 19.0476C25.2882 17.0242 25.2882 10.9648 25.1734 8.94139ZM22.5593 21.2187C22.1328 22.2906 21.307 23.1164 20.2296 23.5484C18.6164 24.1883 14.7882 24.0406 13.0054 24.0406C11.2226 24.0406 7.38901 24.1828 5.7812 23.5484C4.70933 23.1219 3.88355 22.2961 3.45151 21.2187C2.81167 19.6055 2.95933 15.7773 2.95933 13.9945C2.95933 12.2117 2.81714 8.37811 3.45151 6.7703C3.87808 5.69843 4.70386 4.87264 5.7812 4.44061C7.39448 3.80077 11.2226 3.94843 13.0054 3.94843C14.7882 3.94843 18.6218 3.80624 20.2296 4.44061C21.3015 4.86718 22.1273 5.69296 22.5593 6.7703C23.1992 8.38358 23.0515 12.2117 23.0515 13.9945C23.0515 15.7773 23.1992 19.6109 22.5593 21.2187Z" fill="#E94709"/>
</g>
<defs>
<clipPath id="clip0_572_108">
<rect width="24.5" height="28" fill="white" transform="translate(0.75)"/>
</clipPath>
</defs>
</svg>
