<svg width="26" height="28" viewBox="0 0 26 28" fill="none" xmlns="http://www.w3.org/2000/svg">
<g id="fa-brands:line" clip-path="url(#clip0_572_143)">
<path id="Vector" d="M15.6305 11.1672V15.0555C15.6305 15.1539 15.5539 15.2305 15.4555 15.2305H14.832C14.7719 15.2305 14.7172 15.1977 14.6899 15.1594L12.907 12.7531V15.0609C12.907 15.1594 12.8305 15.2359 12.732 15.2359H12.1086C12.0102 15.2359 11.9336 15.1594 11.9336 15.0609V11.1727C11.9336 11.0742 12.0102 10.9977 12.1086 10.9977H12.7266C12.7813 10.9977 12.8414 11.025 12.8688 11.0742L14.6516 13.4805V11.1727C14.6516 11.0742 14.7281 10.9977 14.8266 10.9977H15.45C15.5484 10.9922 15.6305 11.0742 15.6305 11.1672ZM11.1461 10.9922H10.5227C10.4242 10.9922 10.3477 11.0688 10.3477 11.1672V15.0555C10.3477 15.1539 10.4242 15.2305 10.5227 15.2305H11.1461C11.2445 15.2305 11.3211 15.1539 11.3211 15.0555V11.1672C11.3211 11.0742 11.2445 10.9922 11.1461 10.9922ZM9.6422 14.2516H7.94142V11.1672C7.94142 11.0688 7.86486 10.9922 7.76642 10.9922H7.14298C7.04454 10.9922 6.96798 11.0688 6.96798 11.1672V15.0555C6.96798 15.1047 6.98439 15.143 7.0172 15.1758C7.05001 15.2031 7.08829 15.225 7.13751 15.225H9.63673C9.73517 15.225 9.81173 15.1484 9.81173 15.05V14.4266C9.81173 14.3336 9.73517 14.2516 9.6422 14.2516ZM18.9117 10.9922H16.4125C16.3195 10.9922 16.2375 11.0688 16.2375 11.1672V15.0555C16.2375 15.1484 16.3141 15.2305 16.4125 15.2305H18.9117C19.0102 15.2305 19.0867 15.1539 19.0867 15.0555V14.432C19.0867 14.3336 19.0102 14.257 18.9117 14.257H17.2109V13.6008H18.9117C19.0102 13.6008 19.0867 13.5242 19.0867 13.4258V12.7969C19.0867 12.6984 19.0102 12.6219 18.9117 12.6219H17.2109V11.9656H18.9117C19.0102 11.9656 19.0867 11.8891 19.0867 11.7906V11.1672C19.0813 11.0742 19.0047 10.9922 18.9117 10.9922ZM25.25 6.21798V21.8203C25.2445 24.2703 23.2375 26.2555 20.782 26.25H5.1797C2.7297 26.2445 0.744543 24.232 0.750011 21.782V6.1797C0.75548 3.7297 2.76798 1.74454 5.21798 1.75001H20.8203C23.2703 1.75548 25.2555 3.76251 25.25 6.21798ZM21.8813 12.9227C21.8813 8.93048 17.8781 5.68204 12.9617 5.68204C8.04532 5.68204 4.0422 8.93048 4.0422 12.9227C4.0422 16.4992 7.21407 19.4961 11.5016 20.0649C12.5461 20.2891 12.4258 20.6719 12.1906 22.0774C12.1524 22.3016 12.0102 22.9578 12.9617 22.5586C13.9133 22.1594 18.0969 19.5344 19.9727 17.3797C21.2633 15.9578 21.8813 14.5195 21.8813 12.9227Z" fill="#E94709"/>
</g>
<defs>
<clipPath id="clip0_572_143">
<rect width="24.5" height="28" fill="white" transform="translate(0.75)"/>
</clipPath>
</defs>
</svg>
