<svg width="121" height="120" viewBox="0 0 121 120" fill="none" xmlns="http://www.w3.org/2000/svg">
<g id="volunteer_activism">
<mask id="mask0_532_189" style="mask-type:alpha" maskUnits="userSpaceOnUse" x="0" y="0" width="121" height="120">
<rect id="Bounding box" width="120.538" height="120" fill="#D9D9D9"/>
</mask>
<g mask="url(#mask0_532_189)">
<path id="volunteer_activism_2" d="M81.1121 62.9998L60.5202 42.9998C58.0656 40.6881 55.9871 38.126 54.2847 35.3135C52.5822 32.501 51.731 29.4381 51.731 26.1248C51.731 21.7081 53.1959 17.9164 56.1256 14.7498C59.0554 11.5831 62.6966 9.99976 67.0494 9.99976C69.8954 9.99976 72.4903 10.7289 74.8341 12.1873C77.1779 13.6456 79.2705 15.4581 81.1121 17.6248C82.9536 15.4581 85.0463 13.6456 87.3901 12.1873C89.7339 10.7289 92.3288 9.99976 95.1748 9.99976C99.5275 9.99976 103.169 11.5831 106.099 14.7498C109.028 17.9164 110.493 21.7081 110.493 26.1248C110.493 29.4301 109.635 32.4856 107.919 35.2913C106.203 38.0969 104.131 40.6664 101.704 42.9998L81.1121 62.9998ZM81.1121 52.6248L96.1793 37.7498C97.8633 36.0953 99.4143 34.3319 100.832 32.4598C102.25 30.5876 102.96 28.4759 102.96 26.1248C102.96 23.7914 102.227 21.7706 100.762 20.0623C99.2974 18.3539 97.4349 17.4998 95.1748 17.4998C93.5007 17.4998 91.9521 17.9581 90.5291 18.8748C89.1061 19.7914 87.8505 20.9164 86.7623 22.2498L81.1121 29.1248L75.4619 22.2498C74.3737 20.9164 73.1181 19.7914 71.6951 18.8748C70.2721 17.9581 68.7235 17.4998 67.0494 17.4998C64.7893 17.4998 62.9268 18.3539 61.4619 20.0623C59.9971 21.7706 59.2646 23.7914 59.2646 26.1248C59.2646 28.4759 59.9737 30.5876 61.3917 32.4598C62.8098 34.3319 64.3609 36.0953 66.0449 37.7498L81.1121 52.6248ZM32.0181 94.9998L70.565 106.25L101.704 96.4998C101.704 94.8331 101.055 93.4373 99.7577 92.3123C98.4603 91.1873 96.9326 90.6248 95.1748 90.6248H68.9328C67.5935 90.6248 66.2751 90.5206 64.9776 90.3123C63.6802 90.1039 62.4036 89.7914 61.148 89.3748L49.0943 85.7498L51.4799 78.1248L63.2826 82.1248C64.2033 82.4581 65.145 82.7081 66.1077 82.8748C67.0703 83.0414 68.012 83.1248 68.9328 83.1248H75.9641C75.9641 81.3748 75.3782 79.8539 74.2063 78.5623C73.0344 77.2706 71.6114 76.2914 69.9372 75.6248L42.5652 65.2498H32.0181V94.9998ZM5.02271 110V57.7498H42.4396C42.886 57.7498 43.3324 57.7914 43.7789 57.8748C44.2253 57.9581 44.6578 58.0831 45.0764 58.2498L72.4484 68.4998C75.6293 69.6664 78.3288 71.5414 80.5471 74.1248C82.7653 76.7081 83.8744 79.7081 83.8744 83.1248H95.1748C99.4299 83.1248 103.047 84.6664 106.025 87.7498C109.004 90.8331 110.493 94.4998 110.493 98.7498V102L71.1928 114L32.0181 102.875V110H5.02271ZM12.5563 102.5H24.3589V65.2498H12.5563V102.5Z" fill="white"/>
</g>
</g>
</svg>
