<svg width="28" height="28" viewBox="0 0 28 28" fill="none" xmlns="http://www.w3.org/2000/svg">
<g id="grommet-icons:tictok" clip-path="url(#clip0_570_537)">
<g id="Group">
<path id="Vector" d="M26.2022 7.98697V12.2558C25.9723 12.2558 25.697 12.3025 25.4217 12.3025C23.4199 12.2923 21.4858 11.5768 19.9593 10.2818V19.3701C19.9678 21.1594 19.3873 22.9018 18.3073 24.3285C17.5462 25.3524 16.5564 26.1843 15.4169 26.7579C14.2773 27.3316 13.0195 27.631 11.7437 27.6325C10.3558 27.6324 8.99084 27.2782 7.77799 26.6035C6.56513 25.9288 5.54445 24.9558 4.8125 23.7766C6.28133 25.1533 8.25417 26.026 10.4125 26.026C11.6826 26.0288 12.9353 25.7308 14.0681 25.1563C15.2008 24.5818 16.1814 23.7472 16.9295 22.7208C17.9398 21.3441 18.5827 19.6455 18.5827 17.7636V8.62864C20.0515 9.9143 21.9333 10.6493 24.045 10.6493C24.3203 10.6493 24.5502 10.6493 24.8255 10.6026V7.8493C25.2385 7.94147 25.606 7.98697 26.019 7.98697H26.2022Z" fill="white"/>
<path id="Vector_2" d="M12.8916 11.1533V15.8818C12.5625 15.791 12.2227 15.7447 11.8813 15.7442C9.86061 15.7442 8.20861 17.4428 8.20861 19.5078C8.20861 19.9675 8.30077 20.3805 8.43844 20.7935C7.52027 20.1052 6.87744 19.0027 6.87744 17.7637C6.87744 15.6987 8.52944 14 10.5501 14C10.9164 14 11.2384 14.0467 11.5593 14.1377V11.1078H11.8346C12.2021 11.1078 12.5696 11.1078 12.8904 11.1545L12.8916 11.1533ZM20.6476 4.58967C19.8216 3.85467 19.2243 2.84551 18.9034 1.78967H20.0059V2.43251C20.1068 3.18084 20.3233 3.90779 20.6476 4.58967Z" fill="white"/>
<path id="Vector_3" d="M24.871 7.89484V10.6482C24.6412 10.6948 24.3659 10.6948 24.0905 10.6948C22.0891 10.6853 20.155 9.97064 18.6282 8.67651V17.7648C18.6361 19.5533 18.0556 21.2948 16.9762 22.7208C15.4607 24.7415 13.1204 26.026 10.458 26.026C8.29969 26.026 6.32685 25.1545 4.85802 23.7767C4.04976 22.4659 3.62086 20.9567 3.61902 19.4168C3.61902 14.9637 7.15402 11.3377 11.5594 11.2V14.2298C11.2306 14.1391 10.8912 14.0928 10.5502 14.0922C8.52952 14.0922 6.87752 15.7897 6.87752 17.8558C6.87752 19.0948 7.47485 20.2428 8.43852 20.8857C8.94369 22.309 10.3204 23.3637 11.8802 23.3637C13.9009 23.3637 15.5529 21.665 15.5529 19.6V1.78967H18.9035C19.2255 2.89217 19.8217 3.85467 20.6477 4.58967C21.0649 5.41752 21.6598 6.14303 22.3899 6.71437C23.1199 7.28572 23.9672 7.6888 24.871 7.89484Z" fill="white"/>
<path id="Vector_4" d="M11.5594 9.54798V11.1066C7.15288 11.2443 3.61905 14.8703 3.61905 19.3235C3.61905 20.93 4.07755 22.3988 4.85805 23.6845C4.0536 22.9044 3.41523 21.9697 2.98136 20.9366C2.54749 19.9034 2.32708 18.7932 2.33338 17.6726C2.33338 13.1273 6.00605 9.45581 10.5036 9.45581C10.8711 9.45581 11.2386 9.50248 11.5594 9.54798Z" fill="white"/>
<path id="Vector_5" d="M18.9035 1.78967H15.5528V19.5078C15.5528 21.5728 13.9008 23.2727 11.8813 23.2727C10.2748 23.2727 8.94364 22.2623 8.43848 20.7935C9.03464 21.2065 9.76848 21.4818 10.5501 21.4818C12.5685 21.4818 14.2216 19.8298 14.2216 17.7637V0H18.6748V0.0921667C18.6748 0.275333 18.6748 0.4585 18.7203 0.642833C18.7203 1.01033 18.8125 1.42333 18.9035 1.78967ZM24.871 6.19617V7.84933C23.0346 7.48183 21.4748 6.24283 20.6021 4.58967C21.7559 5.66984 23.2913 6.24768 24.871 6.19617Z" fill="white"/>
</g>
</g>
<defs>
<clipPath id="clip0_570_537">
<rect width="28" height="28" fill="white"/>
</clipPath>
</defs>
</svg>
