<svg width="28" height="28" viewBox="0 0 28 28" fill="none" xmlns="http://www.w3.org/2000/svg">
<g id="mdi:youtube">
<path id="Vector" d="M11.6667 17.5L17.7217 14L11.6667 10.5V17.5ZM25.1534 8.36498C25.305 8.91331 25.41 9.64831 25.48 10.5816C25.5617 11.515 25.5967 12.32 25.5967 13.02L25.6667 14C25.6667 16.555 25.48 18.4333 25.1534 19.635C24.8617 20.685 24.185 21.3616 23.135 21.6533C22.5867 21.805 21.5834 21.91 20.0434 21.98C18.5267 22.0616 17.1384 22.0966 15.855 22.0966L14 22.1666C9.11171 22.1666 6.06671 21.98 4.86504 21.6533C3.81504 21.3616 3.13837 20.685 2.84671 19.635C2.69504 19.0866 2.59004 18.3516 2.52004 17.4183C2.43837 16.485 2.40337 15.68 2.40337 14.98L2.33337 14C2.33337 11.445 2.52004 9.56665 2.84671 8.36498C3.13837 7.31498 3.81504 6.63831 4.86504 6.34665C5.41337 6.19498 6.41671 6.08998 7.95671 6.01998C9.47337 5.93831 10.8617 5.90331 12.145 5.90331L14 5.83331C18.8884 5.83331 21.9334 6.01998 23.135 6.34665C24.185 6.63831 24.8617 7.31498 25.1534 8.36498Z" fill="#E94709"/>
</g>
</svg>
